:SAMPLES-PER-SECOND 24
:FULLY-SPECIFIED
:DEGREES
63
root  2.68364 40.3321 37.0158 3.78835 -28.4548 -6.40581
RightUpLeg  2.50858 -14.6474 -15.7051
RightLeg  30.8984 -13.0277 -8.51784
RightFoot  -0.465943 -0.405807 4.17593
RightToes  -2.08645e-008 3.77894e-005 6.81332e-007
Spine  0.0785777 12.0214 26.2711
Spine1  12.1503 15.6991 -12.4635
HEad  -28.2912 15.8456 1.77211
LeftShoulder1  6.97582 -12.675 -37.047
LeftArm  -36.7823 43.0626 -45.3454
LeftForeArm  130.62 -77.5427 -127.536
LeftHand  -0.568289 0.499156 13.5519
RightShoulder  4.39843 7.11792 35.5
RightArm  5.20203 -1.1634 29.1076
RightForeArm  23.9727 48.7778 10.9634
RightHand  -0.325062 7.17419 -3.31656
LeftUpLeg  -12.4966 6.84578 2.32021
LeftLeg  12.2973 25.3908 5.21117
LeftFoot  3.39449 -0.314927 2.27445
LeftToes  1.24767e-006 1.47042e-008 1.32732e-009
64
root  2.18995 40.4734 35.8678 7.96198 -36.1249 -7.51762
RightUpLeg  0.214217 -13.5765 -16.2288
RightLeg  23.2696 -8.22695 -4.07666
RightFoot  1.97984 -1.02926 8.91301
RightToes  -2.08645e-008 3.77894e-005 6.81332e-007
Spine  -1.08765 10.718 22.5439
Spine1  12.6351 13.1975 -9.36251
HEad  -30.023 22.2028 -2.34562
LeftShoulder1  6.92417 -12.7068 -36.6554
LeftArm  -30.5674 41.848 -36.8479
LeftForeArm  130.883 -76.9635 -130.099
LeftHand  -0.625645 0.776978 15.7518
RightShoulder  4.39452 7.13419 35.4015
RightArm  7.91727 -0.199557 32.2076
RightForeArm  29.8352 59.9949 16.8692
RightHand  -0.276817 6.66143 -3.00875
LeftUpLeg  -14.0823 7.96099 5.96914
LeftLeg  8.72196 30.8284 2.84835
LeftFoot  6.0192 -0.205993 1.10924
LeftToes  1.24767e-006 1.47042e-008 1.32732e-009
65
root  1.59306 40.4216 34.4351 11.002 -40.5915 -8.90065
RightUpLeg  -0.710617 -12.6964 -15.0061
RightLeg  18.1245 -3.7349 -1.55228
RightFoot  3.28642 -1.62291 12.7617
RightToes  -2.08645e-008 3.77894e-005 6.81332e-007
Spine  -1.21982 8.25726 17.2489
Spine1  12.3021 9.49107 -5.36438
HEad  -31.6274 27.3581 -5.05698
LeftShoulder1  6.75408 -12.6248 -35.839
LeftArm  -20.0626 38.5877 -22.2855
LeftForeArm  136.937 -76.1592 -134.527
LeftHand  -0.563009 -0.0879697 12.0257
RightShoulder  4.4025 7.15239 35.4059
RightArm  10.6192 -1.94683 34.1771
RightForeArm  40.6084 70.8479 29.1347
RightHand  -0.145304 6.2154 -1.78695
LeftUpLeg  -15.5134 9.49056 9.46976
LeftLeg  6.74495 33.5127 1.50006
LeftFoot  8.24586 -0.0206368 -0.172583
LeftToes  1.24767e-006 1.47042e-008 1.32732e-009
66
root  0.980063 40.0256 32.7158 13.3213 -43.2374 -10.3603
RightUpLeg  -2.08568 -9.71956 -12.1874
RightLeg  18.7435 -1.37372 -0.724921
RightFoot  2.31539 -2.04584 17.2008
RightToes  -2.08645e-008 3.77894e-005 6.81332e-007
Spine  0.501918 6.0932 11.6167
Spine1  10.388 6.25057 -1.11913
HEad  -32.0992 30.7976 -6.66051
LeftShoulder1  6.23896 -12.1586 -33.8334
LeftArm  -11.6242 31.4155 -9.88175
LeftForeArm  136.093 -76.5311 -133.013
LeftHand  -0.502889 -1.46538 8.69973
RightShoulder  4.31751 7.08322 34.879
RightArm  12.094 -6.12333 34.7674
RightForeArm  66.3615 78.4234 55.9841
RightHand  -0.0817141 5.51798 -1.19242
LeftUpLeg  -19.1533 13.4271 12.0294
LeftLeg  10.0354 32.9133 3.78698
LeftFoot  9.45492 0.256106 -1.70955
LeftToes  1.24767e-006 1.47042e-008 1.32732e-009
67
root  0.340318 39.1705 30.827 15.1512 -44.6321 -11.5053
RightUpLeg  -3.33608 -8.26254 -8.87203
RightLeg  21.5048 0.0721859 -0.178215
RightFoot  -4.7964 -1.09605 18.7935
RightToes  -2.08645e-008 3.77894e-005 6.81332e-007
Spine  2.36908 5.1142 6.60039
Spine1  8.45459 4.33859 2.88284
HEad  -32.2249 31.8603 -7.43885
LeftShoulder1  5.3184 -11.178 -30.1981
LeftArm  -7.42225 19.7156 -3.02699
LeftForeArm  127.522 -77.9253 -124.86
LeftHand  -0.537097 -2.70075 7.92618
RightShoulder  4.21681 7.03126 34.1349
RightArm  11.3309 -12.428 33.8478
RightForeArm  112.146 79.9679 103.742
RightHand  -0.101248 5.63923 -1.39226
LeftUpLeg  -26.1124 21.455 12.2181
LeftLeg  17.5582 25.1862 8.16254
LeftFoot  9.15642 0.651151 -3.91727
LeftToes  1.24767e-006 1.47042e-008 1.32732e-009
68
root  -0.221232 38.0936 28.9825 16.1163 -46.2122 -12.7323
RightUpLeg  -4.78233 -8.01082 -5.36426
RightLeg  24.2535 0.0839315 -0.178955
RightFoot  -15.9545 0.48402 14.6438
RightToes  -2.08645e-008 3.77894e-005 6.81332e-007
Spine  4.15944 4.85096 4.60339
Spine1  8.03464 3.97895 3.79902
HEad  -32.9149 31.5195 -7.4465
LeftShoulder1  4.54283 -10.1992 -27.0657
LeftArm  -9.50436 5.48332 1.6838
LeftForeArm  116.022 -79.5109 -110.575
LeftHand  -0.534653 -2.89433 7.72333
RightShoulder  4.2085 7.07101 33.907
RightArm  9.79928 -17.3065 32.1185
RightForeArm  133.782 77.4389 128.794
RightHand  -0.32324 5.84131 -3.66267
LeftUpLeg  -31.4165 24.8444 14.7064
LeftLeg  25.1349 21.8755 11.1058
LeftFoot  8.96901 0.856681 -5.08744
LeftToes  1.24767e-006 1.47042e-008 1.32732e-009
